<svg width="169" height="24" fill="none" xmlns="http://www.w3.org/2000/svg">
    <path
        d="M7.251 18.654a7.523 7.523 0 01-2.664-.466 6.017 6.017 0 01-2.139-1.38c-.596-.61-1.069-1.355-1.419-2.236-.35-.894-.525-1.925-.525-3.091 0-1.167.175-2.19.525-3.072.35-.894.823-1.64 1.42-2.236a5.8 5.8 0 012.138-1.36 7.523 7.523 0 012.664-.467 7.42 7.42 0 012.663.466c.83.298 1.549.745 2.158 1.342.609.596 1.082 1.341 1.419 2.236.35.88.525 1.905.525 3.071 0 1.154-.175 2.178-.525 3.072-.337.894-.81 1.646-1.419 2.255a6.202 6.202 0 01-2.158 1.4 7.42 7.42 0 01-2.663.466zm0-2.021c.609 0 1.173-.091 1.691-.273a3.293 3.293 0 001.361-.874c.389-.415.693-.947.914-1.595.22-.66.33-1.458.33-2.39 0-.934-.11-1.725-.33-2.373-.221-.648-.525-1.173-.914-1.575a3.21 3.21 0 00-1.361-.894 4.777 4.777 0 00-1.691-.291c-.61 0-1.173.097-1.692.291-.518.182-.972.48-1.36.894-.377.402-.675.927-.895 1.575-.22.648-.33 1.439-.33 2.372 0 .933.11 1.73.33 2.391.22.648.518 1.18.894 1.595.39.401.843.693 1.361.874a5.09 5.09 0 001.692.273zM16.047 8.37h8.573v10.09h-2.255v-8.263h-4.063v8.263h-2.255V8.37zM28.028 14.883c.143-.661.233-1.516.272-2.566.052-1.063.078-2.379.078-3.947h7.252v10.09h-2.256v-8.263h-2.935a63.433 63.433 0 01-.156 3.539c-.078 1.024-.24 1.892-.486 2.605-.233.7-.577 1.238-1.03 1.614-.441.376-1.037.563-1.789.563-.103 0-.207-.006-.311-.019-.091 0-.188-.006-.291-.02v-2.1c.129.027.226.04.291.04.35 0 .629-.123.836-.37.22-.259.395-.648.525-1.166zM43.997 16.691a3.379 3.379 0 01-.428.7 2.999 2.999 0 01-.641.641 3.22 3.22 0 01-.895.448c-.35.116-.758.174-1.225.174-.44 0-.849-.064-1.224-.194a2.74 2.74 0 01-.992-.544 2.82 2.82 0 01-.661-.914 3.34 3.34 0 01-.233-1.283c0-1.102.408-1.925 1.225-2.47.816-.556 1.97-.835 3.46-.835h1.536v-.622c0-.661-.168-1.115-.505-1.361-.337-.26-.895-.389-1.672-.389-.661 0-1.284.097-1.867.292a8.192 8.192 0 00-1.516.641V9.09c.402-.22.933-.427 1.594-.622a7.62 7.62 0 012.158-.291c1.296 0 2.294.272 2.994.816.713.532 1.069 1.387 1.069 2.566V17.235c.013.143.02.292.02.448l.039.447c.013.13.025.24.038.33h-2.08a8.534 8.534 0 01-.116-.758 29.652 29.652 0 01-.059-.875l-.019-.136zm-2.566.214c.479 0 .874-.097 1.185-.292.324-.207.584-.44.778-.7.195-.272.331-.538.408-.797.078-.259.117-.44.117-.544v-.68h-1.4c-.894 0-1.549.142-1.963.427-.415.272-.622.661-.622 1.167 0 .44.123.79.369 1.05.259.246.635.369 1.128.369zM52.984 10.197v8.263h-2.255v-8.263h-3.052V8.37h8.418v1.828h-3.111zM60.051 15.408l4.666-7.038h2.216v10.09h-2.236v-6.999l-4.627 7h-2.255V8.37h2.236v7.037zM73.983 10.197v8.263h-2.256v-8.263h-3.052V8.37h8.418v1.828h-3.11zM86.94 14.98c0 .583-.11 1.095-.331 1.536a2.88 2.88 0 01-.875 1.089 3.912 3.912 0 01-1.341.641 6.449 6.449 0 01-1.711.214h-3.888V8.37h2.255v3.266h1.691c1.322 0 2.353.272 3.092.817.738.544 1.108 1.387 1.108 2.527zm-5.891-1.555v3.266h1.458c.622 0 1.128-.123 1.517-.37.388-.259.583-.68.583-1.263 0-.583-.175-.998-.525-1.244-.35-.26-.856-.39-1.517-.39h-1.516zM97.699 18.654c-.817 0-1.549-.116-2.197-.35a4.76 4.76 0 01-1.652-1.03 4.617 4.617 0 01-1.05-1.652c-.247-.648-.37-1.387-.37-2.217 0-.816.123-1.548.37-2.196a4.428 4.428 0 011.05-1.634 4.387 4.387 0 011.672-1.03c.661-.246 1.399-.37 2.216-.37.7 0 1.309.078 1.827.234.532.155.953.35 1.264.583v1.867a5.1 5.1 0 00-1.322-.603c-.467-.143-1.011-.214-1.633-.214-2.087 0-3.13 1.121-3.13 3.363 0 2.243 1.024 3.364 3.072 3.364.661 0 1.224-.072 1.691-.214.48-.156.92-.35 1.322-.583v1.866c-.337.22-.758.415-1.264.583-.505.156-1.127.233-1.866.233z"
        fill="#fff"
    />
    <path
        d="M119.867 24c6.677 0 12.089-5.373 12.089-12s-5.412-12-12.089-12c-6.677 0-12.089 5.373-12.089 12s5.412 12 12.089 12z"
        fill="#F23F1F"
    />
    <path
        d="M121.267 4.275c-1.222 0-2.317.17-3.286.511-1.011.34-1.77.852-2.359 1.618-.59.724-.885 1.703-.885 2.895v.17c0 .64.084 1.193.253 1.747.168.553.463 1.021.8 1.447.337.426.758.767 1.306 1.065l-2.724 5.976h3.033l2.345-5.338h1.685v5.332h2.78V4.275h-2.948zm-.548 7.835c-.632 0-1.18-.085-1.643-.256a2.532 2.532 0 01-1.137-.851c-.253-.426-.422-.98-.422-1.704v-.085c0-1.022.295-1.703.885-2.129.59-.425 1.348-.638 2.275-.638h.758v5.663h-.716zM138 6h3.984c1.54 0 2.728.296 3.565.887.848.591 1.272 1.545 1.272 2.862 0 .703-.117 1.311-.351 1.824a3.233 3.233 0 01-.971 1.272c-.424.324-.937.564-1.54.72a8.008 8.008 0 01-2.009.234h-1.556V18H138V6zm2.394 2.008v3.816h1.556c.782 0 1.384-.145 1.808-.435.435-.301.653-.814.653-1.54 0-.636-.206-1.099-.619-1.389-.402-.301-1.005-.452-1.808-.452h-1.59zM151.247 6h2.896l4.218 12h-2.41l-1.022-2.912h-4.854L149.054 18h-2.025l4.218-12zm2.996 7.096l-1.741-4.954-1.724 4.954h3.465zM164.356 12.929V18h-2.411v-5.054L158.045 6h2.645l2.611 4.87L165.996 6h2.226l-3.866 6.929z"
        fill="#fff"
    />
</svg>
