<svg width="61" height="24" fill="none" xmlns="http://www.w3.org/2000/svg"><path d="M12 24c6.627 0 12-5.373 12-12S18.627 0 12 0 0 5.373 0 12s5.373 12 12 12zM10.198 4.823c.968-.343 2.063-.514 3.285-.514h2.948v15.533h-2.78v-5.37h-1.684l-2.345 5.375H6.59l2.723-6.019c-.547-.3-.968-.643-1.305-1.072-.337-.428-.632-.9-.8-1.458a5.907 5.907 0 01-.253-1.758v-.17c0-1.201.295-2.187.884-2.916.59-.772 1.348-1.287 2.359-1.63v-.001zm1.095 7.119c.463.171 1.01.257 1.642.257h.716V6.496h-.758c-.927 0-1.684.214-2.274.643-.59.429-.885 1.115-.885 2.144v.086c0 .729.169 1.286.422 1.715.294.386.673.686 1.137.858zM30.188 6.055h3.998c1.545 0 2.738.296 3.578.89.85.594 1.276 1.551 1.276 2.873 0 .705-.117 1.316-.352 1.83-.224.516-.55.941-.975 1.277-.425.325-.94.566-1.545.723a8.037 8.037 0 01-2.016.235H32.59v4.216h-2.403V6.055h.001zM32.59 8.07v3.83h1.562c.784 0 1.389-.146 1.814-.437.437-.303.655-.818.655-1.546 0-.638-.207-1.103-.621-1.394-.403-.302-1.008-.453-1.814-.453H32.59zm10.892-2.015h2.906l4.233 12.044h-2.419l-1.024-2.923h-4.872L41.28 18.1h-2.03l4.233-12.044-.001-.001zm3.007 7.122l-1.747-4.972-1.73 4.972h3.477zm10.148-.167v5.09h-2.419v-5.074l-3.914-6.971h2.654l2.621 4.888 2.705-4.888h2.234l-3.88 6.954-.001.001z" fill="#fff"/></svg>