<svg width="61" height="24" fill="none" xmlns="http://www.w3.org/2000/svg">
    <path
        d="M30.001 6h4.086c1.58 0 2.799.295 3.657.887.869.591 1.304 1.545 1.304 2.862 0 .702-.12 1.311-.36 1.823a3.247 3.247 0 01-.996 1.272c-.434.324-.96.564-1.58.72a8.419 8.419 0 01-2.06.235h-1.596v4.2H30L30.001 6zm2.455 2.007v3.816h1.596c.802 0 1.42-.145 1.855-.435.446-.302.669-.815.669-1.54 0-.636-.212-1.1-.635-1.39-.412-.3-1.03-.45-1.854-.45h-1.631zM43.588 6h2.97l4.327 11.999h-2.473l-1.046-2.912h-4.98L41.338 18h-2.075l4.326-11.999V6zm3.074 7.095l-1.786-4.953-1.768 4.953h3.554zm10.371-.166V18h-2.472v-5.055l-4-6.945h2.712l2.68 4.87L58.716 6H61l-3.966 6.928v.001z"
        fill="#fff"
    />
    <path d="M12 24c6.627 0 12-5.373 12-12S18.627 0 12 0 0 5.373 0 12s5.373 12 12 12z" fill="#F23F1F" />
    <path
        d="M13.485 4.275c-1.222 0-2.317.17-3.286.511-1.011.34-1.77.852-2.359 1.618-.59.724-.885 1.703-.885 2.895v.17c0 .64.084 1.193.253 1.747.168.553.463 1.021.8 1.447.337.426.758.767 1.306 1.065L6.59 19.704h3.033l2.345-5.338h1.685v5.332h2.78V4.275h-2.948zm-.548 7.835c-.632 0-1.18-.085-1.643-.256a2.532 2.532 0 01-1.137-.851c-.253-.426-.422-.98-.422-1.704v-.085c0-1.022.295-1.703.885-2.129.59-.425 1.348-.638 2.275-.638h.758v5.663h-.716z"
        fill="#fff"
    />
</svg>
