<svg viewBox="80 50 1150 1100" xmlns="http://www.w3.org/2000/svg">
    <path
        fill="#685BFF"
        clip-rule="evenodd"
        fill-rule="evenodd"
        d="M995.853568 770.303464c-48.84605-16.282017-114.478984-41.273019-187.432515-67.65241 43.923579-76.108961 78.885739-162.820165 101.857266-256.978183H669.582152v-86.584987h294.843338v-48.341181H669.582152V166.606681h-120.411192c-21.078269 0-21.078269 20.825835-21.078269 20.825835v123.440404H229.967706v48.341181h298.251202v86.584987H281.969185v48.341181h477.605818a842.095797 842.095797 0 0 1-68.788364 167.742635c-154.9947-50.991742-320.339209-92.390977-424.21595-66.895107-66.390238 16.408234-109.177863 45.564403-134.421299 76.108961-115.362505 140.101072-32.69025 352.903242 211.035129 352.903242C487.198324 1023.873783 626.037224 943.599655 733.574264 811.576482 893.996302 888.568963 1211.68495 1020.718353 1211.68495 1020.718353V832.2761s-39.88463-3.15543-215.831382-61.972636zM320.465426 942.337483c-189.956859 0-246.123505-149.314927-152.217922-231.103661 31.301861-27.641563 88.604462-41.146801 119.14902-44.176014 112.838161-11.107112 217.345988 31.80673 340.660175 91.886109-86.837421 112.964378-197.277456 183.393566-307.591273 183.393566z"
    ></path>
</svg>
