<svg width="40" height="40" viewBox="-20 0 1085 1000" xmlns="http://www.w3.org/2000/svg">
    <path
            fill="#685BFF"
            clip-rule="evenodd"
            d="M858.63 127.45L711.7 275.12c-11.12-6.82-22.86-14.21-34.8-21.28-46.32-27.4-96.16-43.28-150.2-43.63-141.82-.9-260.89 93.79-296.15 231.12C186.5 612.86 308.21 789.3 479.8 811.3c84.67 10.85 163.69-3.43 233.4-55.13 43.62-32.34 77.67-90.1 83.34-138.47H525.55V420.67c4.7-.39 9.64-1.14 14.57-1.15 147.89-.2 295.78-.33 443.67-.45 15.04 0 17.69 1.95 20.24 19.32 22.6 153.94-8.84 294.9-107.96 416.28-76.14 93.23-177.28 147.09-296.2 163.6-141.08 19.61-271.29-10.71-385.26-98.1C99.73 832.07 33.31 714.73 16.52 570.91c-26-222.73 93.9-437.4 299-524.66 193-82.13 374-54.04 538.22 77.45 1.84 1.47 3.74 2.86 4.9 3.74z"
            fill-rule="evenodd"
    />
</svg>