<svg width="40" height="40" viewBox="0 0 40 40" fill="none" xmlns="http://www.w3.org/2000/svg">
    <g clip-path="url(#clip0)">
        <path
            d="M28.4149 0H11.5852C11.2027 -1.91828e-07 10.8239 0.0753881 10.4706 0.221855C10.1172 0.368322 9.7962 0.582996 9.52586 0.853604C9.25552 1.12421 9.04117 1.44545 8.89506 1.79895C8.74894 2.15245 8.67393 2.53128 8.67432 2.91378V37.0891C8.67432 38.6954 9.97451 40 11.5852 40H28.4149C29.1868 39.9996 29.9269 39.6928 30.4727 39.147C31.0185 38.6012 31.3253 37.861 31.3257 37.0891V2.91378C31.3257 2.1415 31.0191 1.40081 30.4733 0.854457C29.9275 0.308101 29.1871 0.000772665 28.4149 0ZM15.8473 1.76955H24.1557C24.3656 1.76955 24.5361 2.08294 24.5361 2.47067C24.5361 2.85839 24.3656 3.17324 24.1557 3.17324H15.8473C15.6359 3.17324 15.4683 2.85839 15.4683 2.47067C15.4683 2.08294 15.6359 1.76955 15.8473 1.76955ZM20.0015 37.1241C19.5086 37.1241 19.0359 36.9283 18.6873 36.5798C18.3388 36.2313 18.143 35.7585 18.143 35.2657C18.143 34.7728 18.3388 34.3 18.6873 33.9515C19.0359 33.603 19.5086 33.4072 20.0015 33.4072C20.4944 33.4072 20.9671 33.603 21.3156 33.9515C21.6641 34.3 21.8599 34.7728 21.8599 35.2657C21.8599 35.7585 21.6641 36.2313 21.3156 36.5798C20.9671 36.9283 20.4944 37.1241 20.0015 37.1241ZM29.1451 30.7558H10.8564V4.91655H29.1451V30.7558Z"
            fill="#685BFF"
        />
    </g>
    <defs>
        <clipPath id="clip0">
            <rect width="40" height="40" fill="white" />
        </clipPath>
    </defs>
</svg>