<svg width="40" height="40" viewBox="0 0 24 24" fill="none" xmlns="http://www.w3.org/2000/svg">
    <path
        d="M12.0127 0H11.9873C5.3669 0 0 5.37258 0 12C0 18.6274 5.3669 24 11.9873 24H12.0127C18.6331 24 24 18.6274 24 12C24 5.37258 18.6331 0 12.0127 0Z"
        fill="#685BFF"
    />
    <path
        d="M13.5372 6.79914H12.4284C10.3957 6.79914 9.32651 7.8287 9.32651 9.34665C9.32651 11.0626 10.0656 11.8678 11.5836 12.8973L12.8376 13.7421L9.23412 19.1275H6.54141L9.7753 14.3097C7.91417 12.9765 6.8714 11.683 6.8714 9.49184C6.8714 6.74634 8.78534 4.87201 12.4153 4.87201H16.0186V19.1143H13.5372V6.79914Z"
        fill="white"
    />
</svg>
