<svg width="40" height="40" fill="none" xmlns="http://www.w3.org/2000/svg">
    <path
        d="M20 40c11.045 0 20-8.955 20-20S31.045 0 20 0 0 8.955 0 20s8.955 20 20 20zM16.997 8.038c1.613-.571 3.438-.856 5.475-.856h4.913V33.07h-4.633v-8.95h-2.807l-3.908 8.958h-5.054l4.539-10.031c-.912-.5-1.614-1.072-2.175-1.787-.562-.713-1.054-1.5-1.334-2.43a9.843 9.843 0 01-.421-2.93v-.283c0-2.002.491-3.645 1.473-4.86.983-1.287 2.247-2.145 3.932-2.717v-.002zm1.825 11.865c.771.285 1.683.429 2.736.429h1.194v-9.505h-1.264c-1.545 0-2.806.356-3.79 1.071-.983.715-1.475 1.859-1.475 3.574v.143c0 1.215.282 2.143.704 2.858.49.644 1.121 1.144 1.895 1.43z"
        fill="#685BFF"
    />
</svg>
