<svg xmlns="http://www.w3.org/2000/svg" width="40" height="40" fill="none" viewBox="0 0 24 24">
    <path
        fill="#685BFF"
        fill-rule="evenodd"
        d="M11.9873 0h.0254C18.6331 0 24 5.37258 24 12c0 6.6274-5.3669 12-11.9873 12h-.0254C5.3669 24 0 18.6274 0 12 0 5.37258 5.3669 0 11.9873 0zm.4411 6.79914h1.1088V19.1143h2.4814V4.87201h-3.6033c-3.62996 0-5.5439 1.87433-5.5439 4.61983 0 2.19116 1.04277 3.48466 2.9039 4.81786l-3.23389 4.8178h2.69271l3.60348-5.3854-1.254-.8448c-1.518-1.0295-2.25709-1.8347-2.25709-3.55065 0-1.51795 1.06919-2.54751 3.10189-2.54751z"
        clip-rule="evenodd"
    />
</svg>
