<svg width="18px" height="18px" viewBox="0 0 18 18" version="1.1" xmlns="http://www.w3.org/2000/svg" xmlns:xlink="http://www.w3.org/1999/xlink">
    <g id="icon" stroke="none" stroke-width="1" fill="none" fill-rule="evenodd">
        <g id="amount">
            <g id="icon">
                <path d="M17.9652908,9.71722266 L16.8849323,9.71722266 L16.8849323,8.04396094 C16.8849323,6.89175 16.0105339,5.93651953 14.878255,5.78133984 L14.0327211,2.75009766 L13.2594024,2.95744922 L10.9381912,0 L3.57730279,5.55373828 L2.81251793,5.75883984 L2.36542231,5.75883984 C1.080251,5.75883984 0.0347091633,6.78399609 0.0347091633,8.04403125 L0.0347091633,15.7148086 C0.0346733068,16.9748437 1.080251,18 2.36542231,18 L14.554255,18 C15.8394263,18 16.8849681,16.9748437 16.8849681,15.7148086 L16.8849681,14.0415469 L17.9653267,14.0415469 L17.9653267,9.71722266 L17.9652908,9.71722266 Z" id="Shape" fill="#000000" fill-rule="nonzero"></path>
                <polygon id="Shape-path" fill="#FFFFFF" points="13.6467251 5.75880469 7.29236653 5.75880469 13.204506 4.17346875"></polygon>
                <polygon id="Shape-path" fill="#FFFFFF" points="10.7223705 1.62492188 12.0274781 3.28777734 6.58358964 4.74760547"></polygon>
                <path d="M15.7030996,15.7148086 C15.7030996,16.3359492 15.1877331,16.8413203 14.5541474,16.8413203 L2.3653506,16.8413203 C1.73183665,16.8413203 1.21639841,16.3360195 1.21639841,15.7148086 L1.21639841,8.04399609 C1.21639841,7.42285547 1.73176494,6.91748437 2.3653506,6.91748437 L14.5541833,6.91748437 C15.1876972,6.91748437 15.7031355,7.42278516 15.7031355,8.04399609 L15.7031355,9.71725781 L11.135008,9.71725781 L11.135008,14.0415469 L15.7030996,14.0415469 L15.7030996,15.7148086 Z" id="Shape-path" stroke="#000000" fill="#FFFFFF"></path>
                <polygon id="Shape-path" fill="#FFFFFF" points="16.783494 12.882832 12.3168048 12.882832 12.3168048 10.8759375 16.783494 10.8759375"></polygon>
            </g>
            <circle id="Oval" fill="#181818" fill-rule="nonzero" cx="13.4632829" cy="11.8794727" r="1"></circle>
        </g>
    </g>
</svg>