<svg width="17" height="15" xmlns="http://www.w3.org/2000/svg">
    <g id="icon" transform="translate(-1 -2)" fill="none" fill-rule="evenodd">
        <path d="M.5 0h18v18H.5z"/>
        <g fill="#000" fill-rule="nonzero">
            <path d="M16.27 5.67V3.98C16.27 2.9 15.34 2 14.2 2H3.54C2.24 2 1.2 3 1.2 4.26v9.97c0 1.28 1.1 2.33 2.42 2.33h11.77a2.37 2.37 0 0 0 2.42-2.33V7.85a2.32 2.32 0 0 0-1.54-2.18zM3.54 3h10.65c.58 0 1.04.46 1.04.98v1.54H3.54c-.73 0-1.3-.58-1.3-1.26 0-.7.57-1.26 1.3-1.26zm11.88 12.56H3.62c-.76 0-1.38-.6-1.38-1.33V6.14c.36.25.83.38 1.3.38H15.42c.75 0 1.37.6 1.37 1.33v1.56h-2.15c-1.1 0-2 .85-2 1.88 0 1.03.9 1.88 2 1.88h2.15v1.06c0 .73-.62 1.33-1.37 1.33z"/>
            <path d="M3.21 3.93h10.55v1H3.21z"/>
        </g>
        <path d="M15.42 15.56H3.62c-.76 0-1.38-.6-1.38-1.33V6.14c.36.25.83.38 1.3.38H15.42c.75 0 1.37.6 1.37 1.33v1.56h-2.15c-1.1 0-2 .85-2 1.88 0 1.03.9 1.88 2 1.88h2.15v1.06c0 .73-.62 1.33-1.37 1.33z"
              stroke="#000" stroke-width="1.6"/>
        <path d="M16.5 10v2.54h-2.42c-.58 0-1.08-.58-1.08-1.27 0-.69.5-1.27 1.08-1.27h2.42z" fill="#FFF"/>
        <circle fill="#000" fill-rule="nonzero" cx="14.94" cy="11.29" r=".7"/>
    </g>
</svg>