<svg width="17px" height="15px" viewBox="0 0 17 15" version="1.1" xmlns="http://www.w3.org/2000/svg"
     xmlns:xlink="http://www.w3.org/1999/xlink">
    <g id="icon" stroke="none" stroke-width="1" fill="none" fill-rule="evenodd">
        <g transform="translate(-1.000000, -2.000000)">
            <rect id="Rectangle" fill-rule="nonzero" x="0.5" y="0" width="18" height="18"/>
            <g id="wallet-outline" transform="translate(1.200000, 2.000000)" fill="#000000" fill-rule="nonzero">
                <path d="M15.0730928,3.66629464 L15.0730928,1.98381696 C15.0730928,0.904017857 14.1375216,0 12.9940456,0 L2.3389282,0 C1.03952364,0 0,1.00446429 0,2.26004464 C0,2.26004464 0,2.26004464 0,2.26004464 L0,12.2293527 C0,13.5100446 1.09149983,14.5647321 2.41689247,14.5647321 L14.1894977,14.5647321 C15.5408785,14.5647321 16.6063902,13.5100446 16.6063902,12.2293527 L16.6063902,5.85100446 C16.6323783,4.87165179 15.982676,4.01785714 15.0730928,3.66629464 Z M2.3389282,1.00446429 L12.9940456,1.00446429 C13.5657836,1.00446429 14.0335692,1.45647321 14.0335692,1.98381696 L14.0335692,3.515625 L11.9545219,3.515625 L2.3389282,3.515625 C1.61126165,3.515625 1.03952364,2.93805804 1.03952364,2.26004464 C1.03952364,1.55691964 1.61126165,1.00446429 2.3389282,1.00446429 Z M14.2154858,13.5602679 L2.41689247,13.5602679 C1.66323783,13.5602679 1.03952364,12.9575893 1.03952364,12.2293527 L1.03952364,4.14341518 C1.40335692,4.39453125 1.87114256,4.52008929 2.3389282,4.52008929 L11.9545219,4.52008929 L14.2154858,4.52008929 C14.9691405,4.52008929 15.5928547,5.12276786 15.5928547,5.85100446 L15.5928547,7.40792411 L13.4358431,7.40792411 C12.3443433,7.40792411 11.4347601,8.26171875 11.4347601,9.29129464 C11.4347601,10.3208705 12.3443433,11.1746652 13.4358431,11.1746652 L15.5928547,11.1746652 L15.5928547,12.2293527 C15.5928547,12.9575893 14.9691405,13.5602679 14.2154858,13.5602679 Z"
                      id="Shape"/>
                <rect id="Rectangle-path" x="2.00892857" y="1.92522321" width="10.546875" height="1"/>
            </g>
            <path d="M15.4154859,15.5602679 L3.61689252,15.5602679 C2.86323788,15.5602679 2.23952369,14.9575893 2.23952369,14.2293527 L2.23952369,6.14341518 C2.60335697,6.39453125 3.07114261,6.52008929 3.53892825,6.52008929 L13.154522,6.52008929 L15.4154859,6.52008929 C16.1691405,6.52008929 16.7928547,7.12276786 16.7928547,7.85100446 L16.7928547,9.40792411 L14.6358431,9.40792411 C13.5443433,9.40792411 12.6347601,10.2617188 12.6347601,11.2912946 C12.6347601,12.3208705 13.5443433,13.1746652 14.6358431,13.1746652 L16.7928547,13.1746652 L16.7928547,14.2293527 C16.7928547,14.9575893 16.1691405,15.5602679 15.4154859,15.5602679 Z"
                  id="Path" stroke="#000000" stroke-width="1.6"/>
            <path d="M16.5,10 L16.5,12.5364683 L14.0791667,12.5364683 C13.4958333,12.5364683 13,11.9567041 13,11.2682341 C13,10.5797642 13.4958333,10 14.0791667,10 L16.5,10 Z"
                  id="Path" fill="#FFFFFF"/>
            <circle id="Oval" fill="#000000" fill-rule="nonzero" cx="14.9384375" cy="11.2884379" r=".7"/>
        </g>
    </g>
</svg>