<svg width="19px" height="18px" viewBox="0 0 19 18" version="1.1" xmlns="http://www.w3.org/2000/svg"
     xmlns:xlink="http://www.w3.org/1999/xlink">
    <!-- Generator: Sketch 47.1 (45422) - http://www.bohemiancoding.com/sketch -->
    <desc>Created with Sketch.</desc>
    <defs></defs>
    <g id="icon" stroke="none" stroke-width="1" fill="none" fill-rule="evenodd">
        <rect id="Rectangle" fill="#FFFFFF" x="0.5" y="0" width="18" height="18"></rect>
        <path d="M3,8.5 L16,8.5" id="Stroke-194" stroke="#181818"></path>
        <path d="M5,5 L14,5 L14,5 C15.1045695,5 16,5.8954305 16,7 L16,13 L16,13 C16,14.1045695 15.1045695,15 14,15 L5,15 L5,15 C3.8954305,15 3,14.1045695 3,13 L3,7 L3,7 C3,5.8954305 3.8954305,5 5,5 Z"
              id="Rectangle-5" stroke="#181818" stroke-width="2"></path>
        <path d="M5.5,2 L5.5,5" id="Stroke-196" stroke="#181818"></path>
        <path d="M13.5,5 L13.5,2" id="Stroke-198" stroke="#181818"></path>
    </g>
</svg>