<svg width="18px" height="19px" viewBox="0 0 18 18" version="1.1" xmlns="http://www.w3.org/2000/svg"
     xmlns:xlink="http://www.w3.org/1999/xlink">
    <!-- Generator: Sketch 47.1 (45422) - http://www.bohemiancoding.com/sketch -->
    <desc>Created with Sketch.</desc>
    <defs></defs>
    <g id="icon" stroke="none" stroke-width="1" fill="none" fill-rule="evenodd">
        <rect id="Rectangle" fill="#FFFFFF" x="0.5" y="0.5" width="18" height="18"></rect>
        <path d="M12,7.25 L10.25,7.25 L10.25,7.25 C8.45507456,7.25 7,5.79492544 7,4 L7,4 L7,4 C7,2.20507456 8.45507456,0.75 10.25,0.75 L12,0.75 L12,7.25 Z"
              id="Stroke-438" stroke="#181818"
              transform="translate(9.500000, 4.000000) rotate(-270.000000) translate(-9.500000, -4.000000) "></path>
        <path d="M6,7 L13,7 L13,7 C14.1045695,7 15,7.8954305 15,9 L15,15 L15,15 C15,16.1045695 14.1045695,17 13,17 L6,17 L6,17 C4.8954305,17 4,16.1045695 4,15 L4,9 L4,9 C4,7.8954305 4.8954305,7 6,7 Z"
              id="Rectangle-7" stroke="#181818" stroke-width="2"></path>
        <rect id="Rectangle-12" fill="#181818" x="9" y="10" width="1" height="4"></rect>
    </g>
</svg>