<svg width="31" height="19" xmlns="http://www.w3.org/2000/svg">
    <g id="icon" fill="none" fill-rule="evenodd">
        <rect fill="#FFF" width="31" height="19" rx="2"/>
        <g fill-rule="nonzero">
            <path fill="#FF5F00" d="M13.56 5.18h4.85v8.53h-4.85z"/>
            <path d="M13.87 9.45c0-1.67.78-3.24 2.11-4.27a5.62 5.62 0 0 0-7.49.59 5.34 5.34 0 0 0 0 7.36 5.62 5.62 0 0 0 7.5.58 5.38 5.38 0 0 1-2.12-4.26z" fill="#EB001B"/>
            <path d="M24.95 9.45a5.42 5.42 0 0 1-3.12 4.88c-1.9.9-4.18.67-5.85-.62a5.38 5.38 0 0 0 0-8.53 5.63 5.63 0 0 1 5.85-.61c1.9.9 3.12 2.8 3.12 4.88z" fill="#F79E1B"/>
        </g>
    </g>
</svg>