<svg width="31px" height="19px" viewBox="0 0 31 19" version="1.1" xmlns="http://www.w3.org/2000/svg"
     xmlns:xlink="http://www.w3.org/1999/xlink">
    <g id="icon" stroke="none" stroke-width="1" fill="none" fill-rule="evenodd">
        <g id="inputBg/card" transform="translate(-256.000000, -148.000000)">
            <g id="Group" transform="translate(0.000000, 50.000000)">
                <g id="Group-3" transform="translate(256.000000, 98.000000)">
                    <rect id="bg-copy-3" fill="#FFFFFF" x="0" y="0" width="31" height="19" rx="2"/>
                    <g id="cardLogo/mccolor" transform="translate(7.000000, 4.000000)">
                        <g id="_Group_">
                            <rect id="Rectangle-path" fill="#FF5F00" fill-rule="nonzero" x="6.56153846" y="1.18287671"
                                  width="4.84615385" height="8.53027397"/>
                            <path d="M6.86923077,5.44876712 C6.86741887,3.78392349 7.64751443,2.21078064 8.98461538,1.18287671 C6.7138139,-0.56506069 3.45285189,-0.310458492 1.49344583,1.76775572 C-0.465960235,3.84596994 -0.465960235,7.05005746 1.49344583,9.12827167 C3.45285189,11.2064859 6.7138139,11.4610881 8.98461538,9.71315068 C7.64793981,8.68557307 6.8678919,7.11308197 6.86923077,5.44876712 L6.86923077,5.44876712 Z"
                                  id="_Path_" fill="#EB001B" fill-rule="nonzero"/>
                            <path d="M17.9461538,5.44876712 C17.9461044,7.52571485 16.7352955,9.42031717 14.8279624,10.3279292 C12.9206292,11.2355413 10.6516292,10.9968198 8.98461538,9.71315068 C10.3207077,8.68470069 11.1008144,7.11241865 11.1008144,5.4480137 C11.1008144,3.78360875 10.3207077,2.21132671 8.98461538,1.18287671 C10.6516292,-0.100792371 12.9206292,-0.339513858 14.8279624,0.568098182 C16.7352955,1.47571022 17.9461044,3.37031255 17.9461538,5.44726027 L17.9461538,5.44876712 Z"
                                  id="Shape" fill="#F79E1B" fill-rule="nonzero"/>
                        </g>
                    </g>
                </g>
            </g>
        </g>
    </g>
</svg>