
<svg width="63px" height="22px" viewBox="0 0 63 22" version="1.1" xmlns="http://www.w3.org/2000/svg" xmlns:xlink="http://www.w3.org/1999/xlink">
    <g id="icon" stroke="none" stroke-width="1" fill="none" fill-rule="evenodd">
        <g id="Artboard-2" transform="translate(-159.000000, -31.000000)" fill="#FFFFFF">
            <g id="mastercard-securecode" transform="translate(159.000000, 31.000000)">
                <path d="M5.77191892,14.1553261 C5.40972973,13.9166739 4.91935135,13.7083913 4.22635135,13.7083913 C3.47813514,13.7083913 2.87610811,13.8609565 2.87610811,14.6438696 C2.87610811,16.0255652 5.60408108,15.5097609 5.60408108,18.4685217 C5.60408108,21.1642391 3.80335135,21.8632174 2.17459459,21.8632174 C1.44997297,21.8632174 0.616621622,21.6271957 0.00194594595,21.3591304 L0.444405405,19.3779348 C0.814864865,19.7096087 1.56308108,19.9360652 2.17459459,19.9360652 C2.75764865,19.9360652 3.67102703,19.779913 3.67102703,18.7793913 C3.67102703,17.2135652 0.944513514,17.796087 0.944513514,15.0475217 C0.944513514,12.5335435 2.53727027,11.7805217 4.07335135,11.7805217 C4.93856757,11.7805217 5.75148649,11.9051087 6.228,12.2166957 L5.77191892,14.1553261" id="Fill-1"/>
                <path d="M11.25,21.5298696 C10.6204865,21.7438913 10.0072703,21.8467174 9.35416216,21.8467174 C7.28756757,21.8467174 6.20878378,20.6486739 6.20878378,18.3630652 C6.20878378,15.6938913 7.58116216,13.7246522 9.44367568,13.7246522 C10.9690541,13.7246522 11.9417838,14.8251304 11.9417838,16.5538043 C11.9417838,17.125087 11.8756216,17.6848913 11.717027,18.4733043 L8.02897297,18.4733043 C8.01778378,18.5897609 8.01364865,18.6473913 8.01364865,18.7153043 C8.01364865,19.6218478 8.5662973,20.0797826 9.63948649,20.0797826 C10.3008649,20.0797826 10.8987568,19.9279348 11.5613514,19.5866957 L11.25,21.5298696 Z M10.2154865,16.9022174 C10.2235135,16.7376957 10.2291081,16.6068913 10.2291081,16.5064565 C10.2291081,15.8727609 9.90389189,15.5013913 9.35416216,15.5013913 C8.76308108,15.5013913 8.343,16.0009348 8.1737027,16.8938478 L10.2154865,16.9022174 L10.2154865,16.9022174 Z" id="Fill-2"/>
                <path d="M16.6687297,21.527 C16.2870811,21.7075435 15.7772432,21.8268696 15.0251351,21.8268696 C13.4075676,21.8268696 12.4046757,20.2378478 12.4046757,18.3025652 C12.4046757,15.7696957 13.8553784,13.7497609 15.9908108,13.7497609 C16.4566216,13.7497609 17.1676216,13.9475217 17.7282973,14.2672391 L17.3191622,16.1248043 C16.9221892,15.8679783 16.5089189,15.7056087 16.0832432,15.7056087 C15.093973,15.7056087 14.3873514,16.5968478 14.3873514,18.1942391 C14.3873514,19.1136957 14.8996216,19.8683913 15.7098649,19.8683913 C16.191973,19.8683913 16.5310541,19.7681957 16.9457838,19.5297826 L16.6687297,21.527" id="Fill-3"/>
                <path d="M23.5904595,19.5795217 C23.4955946,20.2486087 23.4072973,20.8988043 23.355,21.5968261 L21.5734865,21.5968261 L21.7238108,20.3397174 L21.7058108,20.3397174 C21.1478108,21.1938913 20.5705946,21.7752174 19.5621081,21.7752174 C18.4431892,21.7752174 17.837027,20.6190217 17.837027,19.1079565 C17.837027,18.5871304 17.8701081,18.2925217 17.9885676,17.4792391 L18.4928108,13.8788913 L20.4754865,13.8788913 L19.9437568,17.49 C19.89,17.8783478 19.8143514,18.2628696 19.8143514,18.6638913 C19.8143514,19.1189565 20.025,19.5795217 20.5596486,19.5515435 C21.3723243,19.5515435 21.852,18.5744565 21.9884595,17.4340435 L22.5352703,13.8788913 L24.4544595,13.8788913 L23.5904595,19.5795217" id="Fill-4"/>
                <path d="M28.602973,13.8033261 C28.5462973,13.7877826 28.4815946,13.7813261 28.4127568,13.7813261 C27.8121892,13.7813261 27.4594865,14.1228043 26.8958919,15.0465652 L27.0598378,13.8662174 L25.3843784,13.8662174 L24.2532973,21.6456087 L26.1036486,21.6456087 C26.7691622,16.8866739 26.9455135,16.0676522 27.8328649,16.0676522 C27.8851622,16.0676522 27.8905135,16.0676522 27.9676216,16.0767391 C28.1344865,15.1357609 28.359,14.4458696 28.6703514,13.8167174 L28.602973,13.8033261" id="Fill-5"/>
                <path d="M33.263027,21.5298696 C32.6318108,21.7438913 32.0173784,21.8467174 31.3667027,21.8467174 C29.295973,21.8467174 28.2186486,20.6486739 28.2186486,18.3630652 C28.2186486,15.6938913 29.5922432,13.7246522 31.4535405,13.7246522 C32.9791622,13.7246522 33.9548108,14.8251304 33.9548108,16.5538043 C33.9548108,17.125087 33.885973,17.6848913 33.7217838,18.4733043 L30.0412703,18.4733043 C30.0303243,18.5897609 30.0235135,18.6473913 30.0235135,18.7153043 C30.0235135,19.6218478 30.5744595,20.0797826 31.6481351,20.0797826 C32.3095135,20.0797826 32.9088649,19.9279348 33.5717027,19.5866957 L33.263027,21.5298696 Z M32.2226757,16.9022174 C32.2353243,16.7376957 32.2421351,16.6068913 32.2421351,16.5064565 C32.2421351,15.8727609 31.9142432,15.5013913 31.3667027,15.5013913 C30.7756216,15.5013913 30.3555405,16.0009348 30.1845405,16.8938478 L32.2226757,16.9022174 L32.2226757,16.9022174 Z" id="Fill-6"/>
                <path d="M40.8573243,12.3793043 L40.5542432,14.4516087 C39.8955405,14.0857391 39.4161081,13.9338913 38.898,13.9338913 C37.5134595,13.9338913 36.5460811,15.4150652 36.5460811,17.5198913 C36.5460811,18.9726087 37.1935946,19.8521304 38.2723784,19.8521304 C38.7325946,19.8521304 39.2356216,19.6976522 39.8471351,19.3590435 L39.5262973,21.5406304 C38.8415676,21.7481957 38.3937568,21.8196957 37.8853784,21.8196957 C35.8902973,21.8196957 34.6475676,20.2340217 34.6475676,17.6903913 C34.6475676,14.2672391 36.3629189,11.878087 38.8196757,11.878087 C39.1375946,11.878087 39.4187838,11.9177826 39.6515676,11.980913 L40.4092703,12.1920652 C40.6435135,12.283413 40.6919189,12.299913 40.8573243,12.3793043" id="Fill-7"/>
                <path d="M44.6200541,17.2083043 C44.6200541,18.9716522 44.0644865,20.0101957 43.1897838,20.0101957 C42.5505405,20.029087 42.1632973,19.3293913 42.1632973,18.2817609 C42.1632973,17.0437826 42.7295676,15.6405652 43.6373514,15.6405652 C44.3675676,15.6405652 44.6200541,16.401 44.6200541,17.2083043 Z M46.5691622,17.2408261 C46.5691622,15.2804348 45.5842703,13.7552609 43.7324595,13.7552609 C41.6011622,13.7552609 40.2207568,15.6099565 40.2207568,18.3415435 C40.2207568,20.2964348 41.0363514,21.8957391 43.0545405,21.8957391 C45.090973,21.8957391 46.5691622,20.4779348 46.5691622,17.2408261 L46.5691622,17.2408261 Z" id="Fill-8"/>
                <path d="M52.7747838,21.5623913 L51.0263514,21.5623913 L51.1161081,20.802913 C50.6074865,21.4016957 50.0786757,21.6668913 49.4022162,21.6668913 C48.0531892,21.6668913 47.1631622,20.381087 47.1631622,18.4364783 C47.1631622,15.8538696 48.545027,13.6631957 50.1791351,13.6631957 C50.8996216,13.6631957 51.4466757,13.9979783 51.9523784,14.7349783 L52.3600541,12.0000435 L54.1814595,12.0000435 L52.7747838,21.5623913 Z M50.0385405,19.7330435 C50.9105676,19.7330435 51.5116216,18.6531304 51.5116216,17.1116957 C51.5116216,16.1202609 51.1681622,15.5884348 50.5318378,15.5884348 C49.689973,15.5884348 49.0918378,16.6690652 49.0918378,18.2052391 C49.0918378,19.2181957 49.4131622,19.7330435 50.0385405,19.7330435 L50.0385405,19.7330435 Z" id="Fill-9"/>
                <path d="M59.0891351,21.5298696 C58.4496486,21.7438913 57.8434865,21.8467174 57.1879459,21.8467174 C55.1211081,21.8467174 54.0394054,20.6486739 54.0394054,18.3630652 C54.0394054,15.6938913 55.4159189,13.7246522 57.2772162,13.7246522 C58.8025946,13.7246522 59.7736216,14.8251304 59.7736216,16.5538043 C59.7736216,17.125087 59.7106216,17.6848913 59.5466757,18.4733043 L55.8622703,18.4733043 C55.8498649,18.5897609 55.8471892,18.6473913 55.8471892,18.7153043 C55.8471892,19.6218478 56.3995946,20.0797826 57.4727838,20.0797826 C58.1356216,20.0797826 58.7322973,19.9279348 59.3963514,19.5866957 L59.0891351,21.5298696 Z M58.049027,16.9022174 C58.0572973,16.7376957 58.0626486,16.6068913 58.0626486,16.5064565 C58.0626486,15.8727609 57.7388919,15.5013913 57.1879459,15.5013913 C56.5968649,15.5013913 56.1777568,16.0009348 56.007,16.8938478 L58.049027,16.9022174 L58.049027,16.9022174 Z" id="Fill-10"/>
                <path d="M60.9360811,21.5023696 L60.6364054,21.5023696 L60.6364054,20.2127391 L60.2029459,20.2127391 L60.2029459,19.935587 L61.3695405,19.935587 L61.3695405,20.2127391 L60.9360811,20.2127391 L60.9360811,21.5023696 Z M62.9233784,21.5023696 L62.6436486,21.5023696 L62.6436486,20.1931304 L62.6397568,20.1931304 L62.3719459,21.5023696 L62.0783514,21.5023696 L61.8168649,20.1931304 L61.8127297,20.1931304 L61.8127297,21.5023696 L61.5334865,21.5023696 L61.5334865,19.935587 L61.9705946,19.935587 L62.2301351,21.1709348 L62.2345135,21.1709348 L62.4899189,19.935587 L62.9233784,19.935587 L62.9233784,21.5023696 L62.9233784,21.5023696 Z" id="Fill-11"/>
                <polyline id="Fill-12" points="8.33327027 9.86747826 6.35351351 9.86747826 7.48727027 2.51708696 4.95364865 9.86747826 3.59659459 9.86747826 3.43264865 2.56036957 2.23808108 9.86747826 0.383594595 9.86747826 1.93110811 0.30226087 4.78435135 0.30226087 4.86267568 6.22121739 6.78891892 0.30226087 9.86813514 0.30226087 8.33327027 9.86747826"/>
                <path d="M13.4350541,6.40271739 C13.2258649,6.37832609 13.1334324,6.36923913 12.9916216,6.36923913 C11.8685676,6.36923913 11.2996216,6.77097826 11.2996216,7.55676087 C11.2996216,8.04076087 11.5793514,8.34947826 12.0120811,8.34947826 C12.8179459,8.34947826 13.4022162,7.55676087 13.4350541,6.40271739 Z M14.8762703,9.86747826 L13.2353514,9.86747826 L13.2713514,9.06017391 C12.771,9.70391304 12.1028108,10.0028261 11.1947838,10.0028261 C10.1174595,10.0028261 9.38164865,9.13597826 9.38164865,7.88365217 C9.38164865,5.98447826 10.6674324,4.88208696 12.8648919,4.88208696 C13.0891622,4.88208696 13.3759459,4.89906522 13.6707568,4.93971739 C13.7327838,4.68241304 13.7493243,4.57145652 13.7493243,4.43515217 C13.7493243,3.92126087 13.4048919,3.72613043 12.4761892,3.72613043 C11.9155135,3.72613043 11.2721351,3.81030435 10.8284595,3.94852174 L10.5528649,4.02695652 L10.3791892,4.07741304 L10.6521081,2.33295652 C11.6413784,2.03045652 12.293027,1.914 13.0273784,1.914 C14.7303243,1.914 15.6327568,2.70408696 15.6327568,4.19482609 C15.6327568,4.58221739 15.6038108,4.86941304 15.4688108,5.73817391 L15.0540811,8.49391304 L14.9864595,8.99154348 L14.9356216,9.38802174 L14.9010811,9.65895652 L14.8762703,9.86747826 L14.8762703,9.86747826 Z" id="Fill-13"/>
                <path d="M16.29,4.54873913 C16.29,5.53036957 16.749973,6.2095 17.7917838,6.71693478 C18.5893784,7.10695652 18.7161081,7.22078261 18.7161081,7.57469565 C18.7161081,8.05773913 18.3619459,8.28180435 17.5821081,8.28180435 C16.9939459,8.28180435 16.4442162,8.18495652 15.8105676,7.97021739 L15.5361892,9.76441304 L15.6257027,9.78330435 L15.9895946,9.8591087 C16.1065946,9.88373913 16.2788108,9.90526087 16.5062432,9.92965217 C16.9788649,9.97317391 17.3410541,9.99373913 17.5974324,9.99373913 C19.6764324,9.99373913 20.6382162,9.1685 20.6382162,7.39678261 C20.6382162,6.33241304 20.2371081,5.70302174 19.2466216,5.23145652 C18.4200811,4.84406522 18.3261892,4.75295652 18.3261892,4.39163043 C18.3261892,3.97004348 18.6543243,3.7533913 19.2906486,3.7533913 C19.6791081,3.7533913 20.2054865,3.79858696 20.7082703,3.8688913 L20.9909189,2.07278261 C20.474027,1.98621739 19.7068378,1.91926087 19.251973,1.91926087 C17.0462432,1.91926087 16.2817297,3.11323913 16.29,4.54873913" id="Fill-14"/>
                <path d="M24.1017568,9.77254348 C23.562973,9.94854348 23.1372973,10.0288913 22.68,10.0288913 C21.6685946,10.0288913 21.1161892,9.42317391 21.1161892,8.31791304 C21.1161892,8.10126087 21.1327297,7.86715217 21.1726216,7.62084783 L21.2952162,6.86232609 L21.3861892,6.24273913 L22.2460541,0.93523913 L24.2160811,0.93523913 L23.9901081,2.08904348 L25.0041892,2.08904348 L24.7259189,3.98008696 L23.7145135,3.98008696 L23.1910541,7.22628261 C23.1732973,7.36976087 23.157973,7.47545652 23.157973,7.5483913 C23.157973,7.94678261 23.3647297,8.12469565 23.8332162,8.12469565 C24.0618649,8.12469565 24.2340811,8.10126087 24.3664054,8.05247826 L24.1017568,9.77254348" id="Fill-15"/>
                <path d="M30.3788919,9.70391304 C29.700973,9.9133913 29.0451892,10.019087 28.3427027,10.0164565 C26.1325946,10.0164565 24.9779189,8.82080435 24.9779189,6.53447826 C24.9779189,3.86171739 26.4468649,1.89415217 28.4431622,1.89415217 C30.0716757,1.89415217 31.1173784,2.99654348 31.1173784,4.72497826 C31.1173784,5.29745652 31.0470811,5.85534783 30.8707297,6.64376087 L26.9304324,6.64376087 C26.9138919,6.7618913 26.910973,6.81617391 26.910973,6.88480435 C26.910973,7.79421739 27.5008378,8.25191304 28.6538108,8.25191304 C29.3606757,8.25191304 29.9972432,8.10126087 30.7094595,7.75715217 L30.3788919,9.70391304 Z M29.267027,5.07267391 C29.277973,4.91006522 29.2808919,4.77734783 29.2808919,4.67882609 C29.2808919,4.04321739 28.9320811,3.67208696 28.3427027,3.67208696 C27.7144054,3.67208696 27.2636757,4.16780435 27.0790541,5.06717391 L29.267027,5.07267391 L29.267027,5.07267391 Z" id="Fill-16"/>
                <path d="M35.9661892,2.02495652 C35.9039189,2.01323913 35.8350811,2.0051087 35.7635676,2.0051087 C35.1107027,2.0051087 34.7412162,2.34467391 34.1350541,3.27130435 L34.3116486,2.08904348 L32.5162703,2.08904348 L31.2990811,9.86747826 L33.2905135,9.86747826 C34.0027297,5.11332609 34.1846757,4.2923913 35.1396486,4.2923913 C35.1972973,4.2923913 35.2028919,4.2923913 35.2841351,4.30052174 C35.4604865,3.36336957 35.7015405,2.67443478 36.0338108,2.04576087 L35.9661892,2.02495652" id="Fill-17"/>
                <path d="M42.5434865,0.602847826 L42.2197297,2.67778261 C41.5157838,2.30952174 40.9976757,2.16508696 40.4452703,2.16508696 C38.9697568,2.16508696 37.9267297,3.63956522 37.9267297,5.7443913 C37.9267297,7.19830435 38.6267838,8.07423913 39.7782973,8.07423913 C40.2674595,8.07423913 40.8047838,7.91976087 41.462027,7.58115217 L41.1161351,9.76441304 C40.3888378,9.97030435 39.9147568,10.0434783 39.365027,10.0434783 C37.2281351,10.0434783 35.8985676,8.45876087 35.8985676,5.91513043 C35.8985676,2.49365217 37.7350541,0.10426087 40.3628108,0.10426087 C40.7014054,0.10426087 41.0044865,0.136782609 41.2511351,0.207326087 L42.0681892,0.41776087 C42.3104595,0.512695652 42.3656757,0.527043478 42.5434865,0.602847826" id="Fill-18"/>
                <path d="M45.9576486,6.40271739 C45.7511351,6.37832609 45.6557838,6.36923913 45.5168919,6.36923913 C44.3897027,6.36923913 43.8195405,6.77097826 43.8195405,7.55676087 C43.8195405,8.04076087 44.1019459,8.34947826 44.5344324,8.34947826 C45.3444324,8.34947826 45.9216486,7.55676087 45.9576486,6.40271739 Z M47.4000811,9.86747826 L45.7562432,9.86747826 L45.7951622,9.06017391 C45.2950541,9.70391304 44.6254054,10.0028261 43.7185946,10.0028261 C42.6412703,10.0028261 41.903027,9.13597826 41.903027,7.88365217 C41.903027,5.98447826 43.1871081,4.88208696 45.3887027,4.88208696 C45.612,4.88208696 45.9012162,4.89906522 46.1945676,4.93971739 C46.2551351,4.68241304 46.2731351,4.57145652 46.2731351,4.43515217 C46.2731351,3.92126087 45.9287027,3.72613043 45,3.72613043 C44.4366486,3.72613043 43.7947297,3.81030435 43.3549459,3.94852174 L43.0725405,4.02695652 L42.9017838,4.07741304 L43.1773784,2.33295652 C44.1678649,2.03045652 44.8182973,1.914 45.5470541,1.914 C47.2529189,1.914 48.1551081,2.70408696 48.1551081,4.19482609 C48.1551081,4.58221739 48.1208108,4.86941304 47.9926216,5.73817391 L47.574973,8.49391304 L47.5131892,8.99154348 L47.457973,9.38802174 L47.4222162,9.65895652 L47.4000811,9.86747826 L47.4000811,9.86747826 Z" id="Fill-19"/>
                <path d="M52.9358108,2.02495652 C52.8767027,2.01323913 52.8117568,2.0051087 52.7363514,2.0051087 C52.0859189,2.0051087 51.714,2.34467391 51.1049189,3.27130435 L51.2812703,2.08904348 L49.4888108,2.08904348 L48.2764865,9.86747826 L50.2618378,9.86747826 C50.9740541,5.11332609 51.1613514,4.2923913 52.1092703,4.2923913 C52.1712973,4.2923913 52.1671622,4.28713043 52.2484054,4.30052174 C52.4274324,3.36336957 52.6699459,2.67443478 53.0034324,2.04576087 L52.9358108,2.02495652" id="Fill-20"/>
                <path d="M58.3285135,9.86747826 L56.4533514,9.86747826 L56.5511351,9.10536957 C56.0055405,9.7075 55.4448649,9.97030435 54.7202432,9.97030435 C53.2707568,9.97030435 52.3216216,8.68617391 52.3216216,6.74132609 C52.3216216,4.15417391 53.7971351,1.96995652 55.5497027,1.96995652 C56.3198108,1.96995652 56.9026216,2.29780435 57.4508919,3.03456522 L57.8821622,0.30226087 L59.8358919,0.30226087 L58.3285135,9.86747826 Z M55.4035135,8.03621739 C56.3292973,8.03621739 56.9768108,6.95534783 56.9768108,5.41558696 C56.9768108,4.42702174 56.6078108,3.88873913 55.9228378,3.88873913 C55.0247838,3.88873913 54.3867568,4.97415217 54.3867568,6.50458696 C54.3867568,7.52328261 54.7297297,8.03621739 55.4035135,8.03621739 L55.4035135,8.03621739 Z" id="Fill-21"/>
                <path d="M59.4788108,8.7395 C59.4788108,8.06323913 60.0122432,7.5161087 60.6638919,7.5161087 C61.3182162,7.5161087 61.8460541,8.06323913 61.8460541,8.7395 C61.8460541,9.41671739 61.3182162,9.96408696 60.6638919,9.96408696 C60.0122432,9.96408696 59.4788108,9.41671739 59.4788108,8.7395 Z M60.6638919,9.67426087 C61.1610811,9.67426087 61.5675405,9.25434783 61.5675405,8.7395 C61.5675405,8.22752174 61.1610811,7.81119565 60.6638919,7.81119565 C60.1676757,7.81119565 59.76,8.22752174 59.76,8.7395 C59.76,9.25434783 60.1676757,9.67426087 60.6638919,9.67426087 Z M60.5023784,9.27586957 L60.2601081,9.27586957 L60.2601081,8.19786957 L60.6996486,8.19786957 C60.7891622,8.19786957 60.8896216,8.20313043 60.966973,8.25741304 C61.0508919,8.31791304 61.0992973,8.41978261 61.0992973,8.52834783 C61.0992973,8.64743478 61.0302162,8.75934783 60.920027,8.8 L61.1102432,9.27586957 L60.8402432,9.27586957 L60.6804324,8.85332609 L60.5023784,8.85332609 L60.5023784,9.27586957 Z M60.5023784,8.67015217 L60.6376216,8.67015217 C60.6872432,8.67015217 60.7453784,8.67182609 60.7864865,8.64743478 C60.8278378,8.62136957 60.8458378,8.569 60.8458378,8.52284783 C60.8458378,8.48219565 60.8222432,8.43341304 60.7864865,8.41452174 C60.7504865,8.39013043 60.6775135,8.3953913 60.6349459,8.3953913 L60.5023784,8.3953913 L60.5023784,8.67015217 L60.5023784,8.67015217 Z" id="Fill-22"/>
            </g>
        </g>
    </g>
</svg>