<svg width="63px" height="24px" viewBox="0 0 63 24" version="1.1" xmlns="http://www.w3.org/2000/svg" xmlns:xlink="http://www.w3.org/1999/xlink">
    <g id="icon" stroke="none" stroke-width="1" fill="none" fill-rule="evenodd">
        <g id="Artboard-2" transform="translate(-257.000000, -30.000000)">
            <g id="Group-2" transform="translate(257.000000, 30.000000)">
                <g id="COMPLIANT" transform="translate(40.999890, 12.198170)" fill="#FFFFFF">
                    <g id="Group" transform="translate(0.000000, -0.000000)">
                        <path d="M1.74671571,1.43057044 L2.36256485,1.61535256 C2.32119778,1.78679016 2.25604563,1.92999486 2.16710643,2.04497098 C2.07816723,2.15994709 1.96777053,2.24669117 1.835913,2.3052058 C1.70405547,2.36372043 1.53626282,2.3929773 1.33253001,2.3929773 C1.08536178,2.3929773 0.883441808,2.35730444 0.726764039,2.28595766 C0.57008627,2.21461087 0.434869695,2.08911427 0.321110258,1.90946409 C0.207350822,1.72981391 0.150471957,1.49986513 0.150471957,1.21961085 C0.150471957,0.845938479 0.250527051,0.558759142 0.450640242,0.358064227 C0.650753432,0.157369312 0.933855056,0.0570233601 1.29995361,0.0570233601 C1.58642055,0.0570233601 1.81160915,0.114510555 1.97552616,0.22948667 C2.13944316,0.344462785 2.26121564,0.521030599 2.34084725,0.759195409 L1.72034433,0.896242146 C1.69862662,0.827461792 1.67587507,0.777160496 1.65208901,0.74533675 C1.6127903,0.691954982 1.5647018,0.6508927 1.50782208,0.622148671 C1.45094236,0.593404642 1.38734145,0.579032844 1.31701744,0.579032844 C1.15775423,0.579032844 1.03572321,0.642679381 0.950920717,0.769974365 C0.886801762,0.864419031 0.854742765,1.01275653 0.854742765,1.2149913 C0.854742765,1.46547498 0.893006729,1.63716665 0.969535804,1.73007145 C1.04606488,1.82297626 1.15361764,1.86942797 1.29219732,1.86942797 C1.42664029,1.86942797 1.52824663,1.83195864 1.59701938,1.75701885 C1.66579213,1.68207906 1.7156904,1.57326401 1.74671571,1.43057044 Z M2.61541979,1.22577026 C2.61541979,0.857230745 2.7188359,0.570308048 2.92567124,0.364993557 C3.13250658,0.159679066 3.42052047,0.0570233601 3.78972155,0.0570233601 C4.16823022,0.0570233601 4.45986368,0.157882591 4.66463066,0.359604078 C4.86939765,0.561325566 4.9717796,0.843885396 4.9717796,1.20729204 C4.9717796,1.47112117 4.92705213,1.68746807 4.83759585,1.85633923 C4.74813957,2.0252104 4.61886942,2.15660971 4.44978153,2.25054109 C4.28069364,2.34447247 4.0699833,2.39143745 3.81764418,2.39143745 C3.56116836,2.39143745 3.34890678,2.35088845 3.18085307,2.26978922 C3.01279935,2.18869 2.87654862,2.06037037 2.77209677,1.88482648 C2.66764493,1.70928259 2.61541979,1.48959938 2.61541979,1.22577026 Z M3.31813934,1.22884996 C3.31813934,1.45674904 3.36079849,1.62048489 3.44611806,1.72006242 C3.53143764,1.81963995 3.64752223,1.86942797 3.79437532,1.86942797 C3.94536512,1.86942797 4.06222534,1.82066651 4.14495947,1.72314212 C4.22769361,1.62561774 4.26906005,1.45058976 4.26906005,1.19805294 C4.26906005,0.985552441 4.22588382,0.830285686 4.13953007,0.732248016 C4.05317632,0.634210347 3.93605756,0.585192247 3.78817029,0.585192247 C3.64648809,0.585192247 3.53273036,0.634980265 3.44689369,0.734557793 C3.36105703,0.834135321 3.31813934,0.998897729 3.31813934,1.22884996 Z M5.3425301,0.0955196347 L6.26707944,0.0955196347 L6.62386862,1.46906671 L6.97910653,0.0955196347 L7.90055336,0.0955196347 L7.90055336,2.35294118 L7.32658817,2.35294118 L7.32658817,0.631387777 L6.88137733,2.35294118 L6.36170613,2.35294118 L5.91804655,0.631387777 L5.91804655,2.35294118 L5.3425301,2.35294118 L5.3425301,0.0955196347 Z M8.3457642,0.0955196347 L9.51386094,0.0955196347 C9.76826841,0.0955196347 9.95881261,0.155573223 10.0854993,0.2756822 C10.2121859,0.395791177 10.2755283,0.566712927 10.2755283,0.788452577 C10.2755283,1.01635166 10.206498,1.19445931 10.0684354,1.32278087 C9.93037283,1.45110243 9.71966249,1.51526224 9.43629808,1.51526224 L9.05158627,1.51526224 L9.05158627,2.35294118 L8.3457642,2.35294118 L8.3457642,0.0955196347 Z M9.05158627,1.0579265 L9.22377583,1.0579265 C9.35925298,1.0579265 9.4543958,1.03457233 9.50920717,0.98786328 C9.56401853,0.941154233 9.59142381,0.881357284 9.59142381,0.80847064 C9.59142381,0.737637141 9.5676381,0.677583553 9.52006597,0.628308075 C9.47249384,0.579032597 9.3830389,0.554395228 9.25169846,0.554395228 L9.05158627,0.554395228 L9.05158627,1.0579265 Z M10.6431762,0.0955196347 L11.3458958,0.0955196347 L11.3458958,1.79705497 L12.4426347,1.79705497 L12.4426347,2.35294118 L10.6431762,2.35294118 L10.6431762,0.0955196347 Z M12.7901163,0.0955196347 L13.4943871,0.0955196347 L13.4943871,2.35294118 L12.7901163,2.35294118 L12.7901163,0.0955196347 Z M15.3977798,1.98029724 L14.5973311,1.98029724 L14.4871918,2.35294118 L13.7689597,2.35294118 L14.6237024,0.0955196347 L15.3900235,0.0955196347 L16.2447663,2.35294118 L15.5094704,2.35294118 L15.3977798,1.98029724 Z M15.2504104,1.49216448 L14.9991067,0.680663008 L14.7493543,1.49216448 L15.2504104,1.49216448 Z M16.4743524,0.0955196347 L17.1305342,0.0955196347 L17.9868282,1.34433878 L17.9868282,0.0955196347 L18.6492151,0.0955196347 L18.6492151,2.35294118 L17.9868282,2.35294118 L17.135188,1.11336113 L17.135188,2.35294118 L16.4743524,2.35294118 L16.4743524,0.0955196347 Z M18.956364,0.0955196347 L21.0924453,0.0955196347 L21.0924453,0.652945691 L20.3757645,0.652945691 L20.3757645,2.35294118 L19.6730449,2.35294118 L19.6730449,0.652945691 L18.956364,0.652945691 L18.956364,0.0955196347 Z" id="COMPLIANT"/>
                    </g>
                </g>
                <g id="Rectangle-3-+-Letters" transform="translate(0.000000, 0.460022)">
                    <path d="M34.2262971,15.4434272 L36.2795542,14.809593 L35.6147666,13.3589909 C35.1204791,13.9567537 34.6335439,14.7294708 34.2262968,15.4434274 L34.2262971,15.4434272 Z M23.0338401,16.6997809 C23.151424,17.3296893 23.4697096,18.0047607 23.9107658,18.6277998 L8.19078025,23.4805106 L0.0247710812,1.65671035 L29.5005721,0.0174940149 L33.5269587,8.8032832 C33.0703389,9.41902978 31.7021303,11.2713658 30.4133974,13.0894234 L30.4133974,7.26057901 L26.7576968,7.26057901 L26.7576968,15.0775657 C26.252207,14.7422212 25.7209898,14.5066799 25.2095451,14.4224817 L25.2095451,14.0335302 C25.2095451,14.0036707 25.1893138,13.9930751 25.1629418,14.0088023 C25.1629418,14.0088023 24.7683257,14.3195038 23.0328312,14.4852802 C22.5408548,14.5394671 22.3074499,14.5140602 22.1300845,14.4852802 C19.6694896,14.0799801 19.5523406,12.3141802 19.5523406,12.3141802 C19.5489527,12.2849682 19.5462062,12.2369566 19.5462062,12.2073836 L19.5462062,11.5309583 C19.5462062,11.5011882 19.5490113,11.4531095 19.5532473,11.4238323 C19.5532473,11.4238323 19.71961,9.53211939 22.1301885,9.33259021 L23.032945,9.33259021 C24.0977322,9.47343195 24.952915,9.98908381 24.952915,9.98908381 C24.979073,10.0041437 25.0002785,9.99184071 25.0002785,9.96232245 L25.0002785,7.59382329 C25.0002785,7.56398353 24.9793703,7.52784311 24.9520063,7.51356988 C24.9520063,7.51356988 24.4725811,7.20749807 23.0092882,7.12222433 C22.9311483,7.07988259 21.6576754,7.07365195 21.304325,7.12222433 C15.9878909,7.53979365 15.790683,11.3070526 15.790683,11.4791062 L15.790683,12.3943286 C15.790683,12.506692 15.790683,16.3583129 21.3041039,16.6998284 C21.8427477,16.7399723 22.898141,16.6998284 23.0090798,16.6998284 C23.0173498,16.6998284 23.0256033,16.6998125 23.0338401,16.6997809 Z M28.5855471,6.36543908 C29.8193729,6.36543908 30.8195863,5.44144665 30.8195863,4.30164424 C30.8195863,3.16184183 29.8193729,2.23784941 28.5855471,2.23784941 C27.3517213,2.23784941 26.3515079,3.16184183 26.3515079,4.30164424 C26.3515079,5.44144665 27.3517213,6.36543908 28.5855471,6.36543908 Z M5.65059712,16.5727383 C5.65059637,16.6024848 5.67500667,16.6265994 5.70533409,16.6265994 L9.26657149,16.6265994 C9.29680264,16.6265994 9.32130982,16.6022124 9.32130982,16.5727667 L9.32130982,13.8595133 C9.32130982,13.8297824 9.34565114,13.807196 9.37627372,13.8088536 C9.37627372,13.8088536 15.0606633,14.2116457 15.0606638,10.4741941 C15.0606634,7.52507195 11.4942692,7.20146856 10.3201087,7.25547864 C10.2964919,7.25656499 5.70624559,7.25549129 5.70624559,7.25549129 C5.67564036,7.25548428 5.65082932,7.27992433 5.65082858,7.30933991 L5.65059712,16.5727383 Z" id="Combined-Shape" fill="#FFFFFF" fill-rule="nonzero"/>
                    <g id="Letters" transform="translate(5.635872, 6.943732)"/>
                    <path d="M28.6860264,21.1237061 C28.9830996,21.1237061 29.2106612,21.1237061 29.5862787,20.9604884 C30.8842615,20.2919703 35.253227,9.84145529 39.8613724,6.62703106 C39.8894561,6.60642504 39.9271159,6.57641628 39.9488956,6.54589064 C39.9791276,6.50351854 39.9803519,6.46027388 39.9803519,6.46027388 C39.9803519,6.46027388 39.9803514,6.24469544 39.2971175,6.24469544 C35.1947258,6.13517393 30.9286484,14.5583809 28.6860266,17.8910396 C28.6580158,17.92775 28.5037539,17.8910396 28.5037539,17.8910396 C28.5037539,17.8910396 27.0009603,16.1547223 25.6953913,15.4882798 C25.6681707,15.4743847 25.5196491,15.4300455 25.3655271,15.4412417 C25.262293,15.4412417 24.6550167,15.5609359 24.3720584,15.8533613 C24.0376359,16.1989728 24.0445555,16.3929376 24.0474951,16.8135132 C24.0477346,16.8477716 24.070187,16.9862782 24.1116024,17.0572104 C24.4307716,17.6038527 25.8888102,19.5673824 27.0834683,20.6506304 C27.2683301,20.779473 27.5495956,21.1237061 28.6860264,21.1237061 L28.6860264,21.1237061 Z" id="Path-7" fill="#FFFFFF" fill-rule="nonzero"/>
                </g>
                <g id="DSS" transform="translate(40.281563, 0.000000)" fill="#FFFFFF">
                    <path d="M0.784401273,3.97695815 L4.16838881,3.97695815 C4.83546845,3.97695815 5.37431992,4.06679959 5.78495939,4.24648517 C6.19559886,4.42617075 6.53499986,4.68404896 6.80317258,5.02012755 C7.07134529,5.35620613 7.2657676,5.74718277 7.38644532,6.19306921 C7.50712304,6.63895565 7.567461,7.11145508 7.567461,7.61058169 C7.567461,8.39254671 7.47779209,8.99897645 7.29845159,9.42988908 C7.11911108,9.86080172 6.87021701,10.2218312 6.55176191,10.5129884 C6.23330681,10.8041456 5.89139173,10.9979702 5.5260064,11.094468 C5.02653472,11.2275684 4.57400005,11.2941176 4.16838881,11.2941176 L0.784401273,11.2941176 L0.784401273,3.97695815 Z M3.06218189,5.63405021 L3.06218189,9.63203435 L3.62031357,9.63203435 C4.09632014,9.63203435 4.43488311,9.57962684 4.63601265,9.47481025 C4.83714219,9.36999367 4.9946913,9.18698332 5.1086647,8.92577373 C5.2226381,8.66456414 5.27962395,8.24114475 5.27962395,7.65550286 C5.27962395,6.88019286 5.15224382,6.34946286 4.89747974,6.06329694 C4.64271566,5.77713102 4.22034997,5.63405021 3.63036999,5.63405021 L3.06218189,5.63405021 Z M8.36694691,8.8733657 L10.5341068,8.73860219 C10.5810371,9.08799081 10.6765722,9.35418768 10.820715,9.53720077 C11.0553661,9.83334922 11.390577,9.98142123 11.8263577,9.98142123 C12.1515171,9.98142123 12.4020872,9.9057215 12.5780755,9.75431976 C12.7540639,9.60291802 12.8420567,9.42739446 12.8420567,9.22774382 C12.8420567,9.03807571 12.758254,8.86837521 12.5906461,8.71863722 C12.4230381,8.56889924 12.0341935,8.42748216 11.4241006,8.29438173 C10.4251572,8.07143851 9.71283413,7.7752945 9.28710994,7.40594081 C8.8580336,7.03658712 8.64349864,6.56575141 8.64349864,5.99341957 C8.64349864,5.61741085 8.7532802,5.26220441 8.97284661,4.92778959 C9.19241302,4.59337476 9.52259573,4.33050535 9.96340463,4.13917349 C10.4042135,3.94784162 11.0084311,3.85217712 11.7760755,3.85217712 C12.7180322,3.85217712 13.4362215,4.02603695 13.9306649,4.37376182 C14.4251084,4.72148669 14.7192559,5.27467705 14.8131163,6.0333495 L12.6660693,6.15813052 C12.6090826,5.82870696 12.4892447,5.58912978 12.306552,5.4393918 C12.1238594,5.28965382 11.8716132,5.21478595 11.5498059,5.21478595 C11.2849854,5.21478595 11.0855349,5.27052092 10.9514485,5.38199253 C10.8173622,5.49346414 10.75032,5.62905817 10.75032,5.78877868 C10.75032,5.90524156 10.8056298,6.01005657 10.916251,6.10322687 C11.0235201,6.19972468 11.2782804,6.28956612 11.6805395,6.37275389 C12.6761307,6.58571458 13.3892918,6.80116767 13.8200442,7.01911962 C14.2507966,7.23707157 14.5642188,7.50742776 14.7603201,7.8301963 C14.9564214,8.15296484 15.0544706,8.51399434 15.0544706,8.91329563 C15.0544706,9.38247464 14.9237383,9.81504455 14.6622699,10.2110183 C14.4008015,10.6069921 14.0354217,10.9072954 13.5661194,11.1119373 C13.0968172,11.3165793 12.50517,11.4188987 11.7911602,11.4188987 C10.5374527,11.4188987 9.66925656,11.1793215 9.18654568,10.70016 C8.70383479,10.2209984 8.43063793,9.61207308 8.36694691,8.8733657 Z"/>
                    <g id="S" transform="translate(15.209876, 0.000000)">
                        <path d="M0.375657089,8.8733657 L2.54281702,8.73860219 C2.58974724,9.08799081 2.68528234,9.35418768 2.82942517,9.53720077 C3.0640763,9.83334922 3.39928717,9.98142123 3.83506783,9.98142123 C4.16022725,9.98142123 4.41079737,9.9057215 4.58678572,9.75431976 C4.76277406,9.60291802 4.85076691,9.42739446 4.85076691,9.22774382 C4.85076691,9.03807571 4.7669642,8.86837521 4.59935625,8.71863722 C4.4317483,8.56889924 4.0429037,8.42748216 3.43281077,8.29438173 C2.4338674,8.07143851 1.72154431,7.7752945 1.29582012,7.40594081 C0.866743775,7.03658712 0.65220882,6.56575141 0.65220882,5.99341957 C0.65220882,5.61741085 0.761990379,5.26220441 0.98155679,4.92778959 C1.2011232,4.59337476 1.53130591,4.33050535 1.97211481,4.13917349 C2.41292371,3.94784162 3.0171413,3.85217712 3.7847857,3.85217712 C4.72674236,3.85217712 5.44493165,4.02603695 5.93937509,4.37376182 C6.43381854,4.72148669 6.72796607,5.27467705 6.82182652,6.0333495 L4.67477945,6.15813052 C4.61779275,5.82870696 4.49795486,5.58912978 4.3152622,5.4393918 C4.13256954,5.28965382 3.88032336,5.21478595 3.5585161,5.21478595 C3.29369554,5.21478595 3.09424508,5.27052092 2.96015872,5.38199253 C2.82607236,5.49346414 2.75903019,5.62905817 2.75903019,5.78877868 C2.75903019,5.90524156 2.81433998,6.01005657 2.92496123,6.10322687 C3.03223031,6.19972468 3.28699057,6.28956612 3.68924965,6.37275389 C4.68484085,6.58571458 5.39800197,6.80116767 5.8287544,7.01911962 C6.25950682,7.23707157 6.57292898,7.50742776 6.76903028,7.8301963 C6.96513158,8.15296484 7.06318076,8.51399434 7.06318076,8.91329563 C7.06318076,9.38247464 6.93244852,9.81504455 6.67098012,10.2110183 C6.40951173,10.6069921 6.04413188,10.9072954 5.57482963,11.1119373 C5.10552737,11.3165793 4.51388019,11.4188987 3.79987034,11.4188987 C2.54616289,11.4188987 1.67796674,11.1793215 1.19525585,10.70016 C0.712544966,10.2209984 0.439348109,9.61207308 0.375657089,8.8733657 Z" id="S"/>
                    </g>
                </g>
                <path d="M9.25788144,12.1965936 L9.25788144,9.75205238 L10.1293579,9.75205238 C10.1293579,9.75205238 11.3966122,9.80792762 11.4952741,10.6523651 C11.5183125,10.7183435 11.5127564,11.1316928 11.495147,11.154474 C11.331885,12.1481515 10.2308842,12.1967967 10.2308842,12.1967967 L9.25788144,12.1965936 L9.25788144,12.1965936 Z" id="Path-1-path" fill="#D8D8D8"/>
            </g>
        </g>
    </g>
</svg>