<svg width="18px" height="18px" viewBox="0 0 18 18" version="1.1" xmlns="http://www.w3.org/2000/svg"
     xmlns:xlink="http://www.w3.org/1999/xlink">
    <!-- Generator: Sketch 47.1 (45422) - http://www.bohemiancoding.com/sketch -->
    <desc>Created with Sketch.</desc>
    <defs></defs>
    <g id="icon" stroke="none" stroke-width="1" fill="none" fill-rule="evenodd">
        <g id="Group-3">
            <rect id="Rectangle" fill="#FFFFFF" x="0" y="0" width="18" height="18"></rect>
            <path d="M15,12 C15,9.791 12.3138,8 9,8 C5.6862,8 3,9.791 3,12" id="Stroke-13" stroke="#181818"
                  stroke-width="2" stroke-linecap="round"></path>
            <path d="M9,8 C10.6568182,8 12,6.65681818 12,5 C12,3.34318182 10.6568182,2 9,2 C7.34318182,2 6,3.34318182 6,5 C6,6.65681818 7.34318182,8 9,8 L9,8 Z"
                  id="Stroke-15" stroke="#181818" stroke-width="2" stroke-linecap="round"></path>
            <path d="M3,12 L3,14 L3,14 C3,15.1045695 3.8954305,16 5,16 L13,16 L13,16 C14.1045695,16 15,15.1045695 15,14 L15,12"
                  id="Path-3" stroke="#181818" stroke-width="2"></path>
        </g>
    </g>
</svg>