
<svg width="59px" height="32px" viewBox="0 0 59 32" version="1.1" xmlns="http://www.w3.org/2000/svg" xmlns:xlink="http://www.w3.org/1999/xlink">
    <g id="icon" stroke="none" stroke-width="1" fill="none" fill-rule="evenodd">
        <g id="Artboard-2" transform="translate(-65.000000, -26.000000)" fill="#FFFFFF">
            <g id="verified-by-visa-(1)" transform="translate(65.000000, 26.000000)">
                <path d="M50.2702802,21.3171966 C50.1887633,21.9448889 50.0813092,22.5476923 49.9484879,23.1256068 C49.3895556,22.9508376 48.7442609,22.6702222 47.8336087,22.7287521 C47.2900676,22.7637607 46.6470531,22.9639658 46.6382174,23.4343932 C46.6285266,23.9554188 47.5209372,24.2652991 48.0174493,24.4931282 C48.9127101,24.9042051 49.8735266,25.4520342 49.9484879,26.5665641 C50.0057778,27.423453 49.5913527,28.1690256 49.1207778,28.5959658 C47.8678116,29.7323761 45.087686,29.8524444 43.1902802,29.1254701 C43.3085652,28.5182906 43.4160193,27.9007179 43.5123575,27.2724786 C44.2468647,27.5722393 45.2558502,27.9770256 46.362599,27.8460171 C46.8665217,27.7861197 47.483599,27.5041368 47.4659275,27.008 C47.4439807,26.4024615 46.2662609,26.0422564 45.6728406,25.728547 C44.9833671,25.3639658 44.1986957,24.7573333 44.155657,23.8315214 C44.1271546,23.2147692 44.3774058,22.6371282 44.7074638,22.2435556 C45.6870918,21.0751453 48.2047101,20.6599658 50.2702802,21.3171966" id="Fill-1"/>
                <polyline id="Fill-2" points="27.7385507 9.50263248 30.2732705 9.50263248 28.7127633 18.9407179 26.1777585 18.9407179 27.7385507 9.50263248"/>
                <path d="M21.18043,11.3788718 L20.7888068,13.7471453 L21.5218889,13.7471453 C22.2341643,13.7471453 22.9082464,13.2146325 23.0202609,12.5628718 C23.1319903,11.9119316 22.6406087,11.3788718 21.9280483,11.3788718 L21.18043,11.3788718 Z M18.9558164,9.50208547 L22.8369903,9.50208547 C25.3061546,9.50208547 25.9474589,10.8665983 25.6778261,12.4961368 C25.452942,13.8573675 24.4336957,14.7656752 23.1103285,15.0886838 L25.5686618,18.9407179 L22.3863671,18.9407179 L20.5428309,15.2344615 L19.930029,18.9407179 L17.3950242,18.9407179 L18.9558164,9.50208547 L18.9558164,9.50208547 Z" id="Fill-3"/>
                <polyline id="Fill-4" points="39.3145217 9.50263248 41.8492415 9.50263248 40.2887343 18.9407179 37.7537295 18.9407179 39.3145217 9.50263248"/>
                <polyline id="Fill-5" points="43.7748647 9.50208547 49.3402464 9.50208547 49.0007826 11.5544615 45.9706908 11.5544615 45.7039082 13.1675897 48.5846473 13.1675897 48.2454686 15.2194188 45.3644444 15.2194188 45.0885411 16.8886154 48.1189179 16.8886154 47.7794541 18.9407179 42.2143575 18.9407179 43.7748647 9.50208547"/>
                <polyline id="Fill-6" points="11.8835121 9.50208547 17.4486087 9.50208547 17.1091449 11.5544615 14.0790531 11.5544615 13.8122705 13.1675897 16.6930097 13.1675897 16.3538309 15.2194188 13.4730918 15.2194188 13.1969034 16.8886154 16.2272802 16.8886154 15.8881014 18.9407179 10.3227198 18.9407179 11.8835121 9.50208547"/>
                <polyline id="Fill-7" points="32.1929082 9.50208547 37.8204251 9.50208547 37.4812464 11.5544615 34.3881643 11.5544615 34.1173913 13.1675897 36.9317198 13.1675897 36.5911159 15.2194188 33.7779275 15.2194188 33.1625604 18.9407179 30.6318309 18.9407179 32.1929082 9.50208547"/>
                <path d="M53.0273188,11.5544615 C53.2108744,11.5544615 53.3847391,11.5544615 53.5509082,11.5544615 C55.4885024,11.5544615 56.2458116,12.865641 56.0371739,14.1308718 C55.7561401,15.8282393 54.4846473,16.8886154 52.8229565,16.8886154 C52.6012077,16.8886154 52.3877246,16.8886154 52.1451691,16.8886154 L53.0273188,11.5544615 Z M50.8317778,9.50208547 L54.1352077,9.50208547 C58.0708213,9.50208547 58.9677923,12.3585641 58.6593961,14.2238632 C58.2184638,16.8886154 55.742744,18.9407179 52.5747005,18.9407179 L49.2712705,18.9407179 L50.8317778,9.50208547 L50.8317778,9.50208547 Z" id="Fill-9"/>
                <path d="M0,8.21634188 L4.68921739,8.21634188 L5.24615459,15.0733675 C8.34864251,9.9202735 11.5021498,4.96164103 14.6784589,0.0910769231 L16.2076135,0.0910769231 C12.8448986,6.31384615 9.5249372,12.5768205 6.30929469,18.9407179 L2.86677295,18.9407179 L2.02766184,11.3788718 C1.81930918,9.50208547 1.4242657,8.70536752 0,8.50352137 L0,8.21634188" id="Fill-10"/>
                <polyline id="Fill-12" points="1.77541546 4.31699145 5.77344928 5.94324786 6.12089372 10.2156581 6.41646377 10.2156581 10.0456763 4.3197265 10.0456763 4.02379487 1.77484541 4.02379487 1.77541546 4.31699145"/>
                <path d="M18.2116184,21.1602051 L19.8522174,21.1602051 L19.2992705,24.8801368 C19.7678502,24.4460855 20.3410338,24.1777778 20.9814831,24.1777778 C22.2977246,24.1777778 23.1607778,25.3948718 22.9281981,26.8969573 C22.6956184,28.3990427 21.4546232,29.6175043 20.1383816,29.6175043 C19.4893816,29.6175043 19.0242222,29.3368889 18.7072754,28.865094 L18.6197729,29.4550427 L16.9788889,29.4550427 L18.2116184,21.1602051 Z M20.2592319,25.7011966 C20.8654783,25.7011966 21.2773382,26.2342564 21.1790048,26.8914872 C21.0809565,27.5481709 20.5100531,28.0809573 19.9040918,28.0809573 C19.2978454,28.0809573 18.8857005,27.5481709 18.9840338,26.8914872 C19.0820821,26.2342564 19.6532705,25.7011966 20.2592319,25.7011966 L20.2592319,25.7011966 Z" id="Fill-13"/>
                <polyline id="Fill-14" points="23.069 24.3044103 25.0376618 24.3044103 25.9181014 26.9409915 27.6285314 24.3044103 29.5310676 24.3044103 24.5380145 32 22.6357633 32 24.7409517 28.7548718 23.069 24.3044103"/>
                <polyline id="Fill-15" points="39.3136667 29.4523077 40.7556039 21.1577436 43.1147488 21.1577436 41.6728116 29.4523077 39.3136667 29.4523077"/>
                <path d="M37.3415845,21.1405128 C38.1692947,21.1405128 38.9967198,21.1405128 39.8241449,21.1405128 C38.621058,23.9272479 37.3367391,26.6352137 36.1464783,29.4342564 L33.618029,29.4342564 L31.5208213,22.2610598 C32.2519082,22.6713162 32.9442319,23.1887863 33.5154203,23.7880342 C33.5624493,23.8380855 33.6086232,23.8881368 33.653657,23.938735 C33.7277633,24.0213333 33.8012995,24.1039316 33.8705604,24.189265 C33.8813913,24.2021197 33.8916522,24.2149744 33.9021981,24.2275556 C34.2978116,24.7228718 34.6070628,25.2630427 34.7889082,25.8354872 L34.7475797,25.6418462 C34.7484348,25.6459487 34.75043,25.6511453 34.751285,25.6549744 L34.9972609,26.7432479 C35.8346618,24.929641 36.5284106,22.977641 37.3415845,21.1405128 Z M32.8889372,21.1418803 C33.4159469,21.1418803 33.8480435,21.3768205 33.9611981,21.9722393 L34.7889082,25.8354872 C34.055256,23.5249231 31.2523285,21.7378462 29.0322754,21.3223932 L29.0322754,21.1418803 L32.8889372,21.1418803 Z" id="Combined-Shape"/>
                <path d="M54.6434058,23.4384957 L53.442029,26.5225299 L55.3847536,26.5225299 L54.6434058,23.4384957 Z M58.2233092,29.4782906 C57.5030531,29.4782906 56.7827971,29.4782906 56.0625411,29.4782906 C55.9228792,29.0828034 55.8838309,28.5910427 55.7407488,28.1988376 C54.7602657,28.1988376 53.7792126,28.1988376 52.7987295,28.1988376 L52.2469227,29.4782906 C51.4194976,29.4782906 50.5917874,29.4782906 49.7643623,29.4782906 L52.982285,22.3759316 C53.1245121,22.0641368 53.3801787,21.6388376 53.4882029,21.4492991 C53.6518068,21.1621197 54.2842754,21.1405128 54.5530531,21.1405128 L56.3384444,21.1405128 L58.2233092,29.4782906 L58.2233092,29.4782906 Z" id="Fill-18"/>
            </g>
        </g>
    </g>
</svg>