<svg width="31px" height="19px" viewBox="0 0 31 19" version="1.1" xmlns="http://www.w3.org/2000/svg"
     xmlns:xlink="http://www.w3.org/1999/xlink">
    <g id="icon" stroke="none" stroke-width="1" fill="none" fill-rule="evenodd">
        <g id="inputBg/card" transform="translate(-256.000000, -105.000000)">
            <g id="Group" transform="translate(0.000000, 50.000000)">
                <g id="Group-2" transform="translate(256.000000, 55.000000)">
                    <rect id="bg-copy" fill="#FFFFFF" x="0" y="0" width="31" height="19" rx="2"/>
                    <g id="visaLogo/color" transform="translate(1.000000, 6.000000)">
                        <path d="M18.9382716,0.291026538 C18.8643566,0.876587815 18.7669231,1.43893076 18.6464881,1.97805537 C18.1396791,1.81501674 17.5545615,1.5532364 16.7288324,1.60783776 C16.2359794,1.64049651 15.6529294,1.82726377 15.6449176,2.26611579 C15.6361305,2.75216993 16.4453192,3.04125094 16.8955289,3.25378799 C17.707302,3.63727322 18.5785173,4.14833171 18.6464881,5.18805381 C18.6984354,5.98742787 18.3226576,6.6829573 17.8959663,7.08124103 C16.7598457,8.14137484 14.2389813,8.25338417 12.5185185,7.5752047 C12.6257728,7.00877941 12.7232063,6.43265856 12.8105604,5.84658699 C13.476571,6.12622758 14.3914634,6.50384444 15.3950021,6.38162925 C15.8519314,6.32575216 16.411463,6.0626961 16.3954395,5.5998603 C16.3755393,5.03496589 15.307648,4.69893792 14.7695672,4.40628485 C14.1443908,4.06617453 13.432894,3.50025954 13.3938689,2.63658855 C13.3680245,2.06123313 13.5949385,1.52236367 13.8942168,1.15520782 C14.7824894,0.065221863 17.0653267,-0.322090563 18.9382716,0.291026538"
                              id="Fill-1" fill="#344E90"/>
                        <polyline id="Fill-15" fill="#344E90"
                                  points="9.30864198 8 10.6480722 0 12.8395062 0 11.5000759 8 9.30864198 8"/>
                        <path d="M7.83927394,0 C7.14769385,1.77206173 6.55768126,3.65492679 5.84549679,5.40430022 L5.63630169,4.35457064 C5.63557447,4.35087719 5.63387764,4.34586466 5.63315043,4.3419074 L5.66829908,4.52869015 C5.513645,3.97652025 5.2506361,3.45548081 4.91417863,2.97770743 C4.90520966,2.96557182 4.8964831,2.9531724 4.88727173,2.94077299 C4.82836743,2.85846194 4.76582707,2.77878908 4.70280189,2.69911621 C4.66450198,2.65030999 4.62523245,2.60203139 4.5852357,2.5537528 C4.09945705,1.9757288 3.51065648,1.4765862 2.88888889,1.08086004 L4.67250133,8 L6.8228718,8 C7.83515306,5.30009234 8.92742782,2.68803588 9.95061728,0 C9.24691697,0 8.54321666,0 7.83927394,0"
                              id="Fill-16" fill="#344E90"/>
                        <path d="M3.44073591,0 L0,0 L0,0.166656955 C1.98062908,0.550220461 4.48127182,2.20012431 5.13580247,4.33333333 L4.39735763,0.766621992 C4.29640632,0.216906552 3.91090964,0 3.44073591,0"
                              id="Fill-17" fill="#EB902D"/>
                        <path d="M22.7397224,2.20488765 L21.6456085,5.16398229 L23.4148802,5.16398229 L22.7397224,2.20488765 Z M26,8 C25.3440508,8 24.6881017,8 24.0321525,8 C23.9049602,7.62053469 23.8693982,7.14869608 23.7390909,6.77237986 C22.8461487,6.77237986 21.9526872,6.77237986 21.059745,6.77237986 L20.5572054,8 C19.8036555,8 19.0498461,8 18.2962963,8 L21.2269121,1.18536985 C21.3564406,0.886206331 21.5892805,0.478136789 21.6876599,0.296276857 C21.8366567,0.0207315073 22.4126563,0 22.6574367,0 L24.2834223,0 L26,8 L26,8 Z"
                              id="Fill-18" fill="#344E90"/>
                    </g>
                </g>
            </g>
        </g>
    </g>
</svg>