<svg width="31" height="19" xmlns="http://www.w3.org/2000/svg">
    <g id="icon" fill="none" fill-rule="evenodd">
        <rect fill="#FFF" width="31" height="19" rx="2"/>
        <path d="M19.94 6.3c-.08.58-.17 1.14-.3 1.68-.5-.16-1.09-.43-1.91-.37-.5.03-1.08.22-1.09.66 0 .48.8.77 1.26.98.8.39 1.68.9 1.75 1.94.05.8-.33 1.5-.75 1.9-1.14 1.05-3.66 1.16-5.38.49l.3-1.73c.66.28 1.57.65 2.58.53.45-.05 1.01-.32 1-.78-.02-.57-1.1-.9-1.63-1.2-.63-.33-1.34-.9-1.38-1.76-.02-.58.2-1.12.5-1.48.9-1.1 3.18-1.48 5.05-.87M10.3 14l1.35-8h2.19l-1.34 8h-2.2M8.84 6c-.7 1.77-1.28 3.65-2 5.4l-.2-1.05.03.18a5.1 5.1 0 0 0-.76-1.55l-.02-.04a6.32 6.32 0 0 0-.3-.39 7.46 7.46 0 0 0-1.7-1.47L5.67 14h2.15c1.02-2.7 2.1-5.31 3.13-8H8.84" fill="#344E90"/>
        <path d="M4.44 6H1v.17c1.98.38 4.48 2.03 5.14 4.16L5.4 6.77C5.3 6.22 4.9 6 4.44 6" fill="#EB902D"/>
        <path d="M23.74 8.2l-1.1 2.96h1.77l-.67-2.96zM27 14h-1.97c-.13-.38-.16-.85-.3-1.23h-2.67l-.5 1.23H19.3l2.93-6.81c.13-.3.36-.71.46-.9.15-.27.72-.29.97-.29h1.62L27 14z" fill="#344E90"/>
    </g>
</svg>