<svg width="64" height="32" fill="none" xmlns="http://www.w3.org/2000/svg">
  <g clip-path="url(#clip0)">
    <path d="M59.305 18.703c-2.417-2.34-5.611-3.779-9.148-3.779h-28.4c.051 1.09.204 2.152.433 3.174.05.228.102.457.165.685l.077.283c2.201 7.368 8.716 12.705 16.413 12.705h24.646c.14-.82.23-1.667.23-2.527 0-4.182-1.706-7.92-4.416-10.541z" stroke="#fff" stroke-width=".5" stroke-miterlimit="10"/>
    <path fill-rule="evenodd" clip-rule="evenodd" d="M37.574 3.805C35.156 1.465 31.963.027 28.425.027H.026C.077 1.116.23 2.178.46 3.2c.05.229.102.457.165.686l.076.282c2.202 7.368 8.716 12.706 16.414 12.706H41.76c.14-.82.229-1.667.229-2.528 0-4.181-1.705-7.933-4.415-10.54zM29.277 8.31h-5.306v2.905h1.68V9.586h.712l.955 1.64h1.908l-1.12-1.775a2.017 2.017 0 001.171-1.143zm-1.794-2.635c.484 0 .916.188 1.247.51.369.364.598.875.61 1.44 0 .12-.012.242-.025.35h-3.104c-1.044 0-1.934-.727-2.24-1.735a.05.05 0 00-.006-.02c-.003-.007-.006-.014-.006-.02-.007-.014-.01-.03-.013-.048-.003-.017-.006-.033-.013-.047-.038-.134-.05-.282-.063-.43h3.613zm-9.186.726l-.7 2.555h-.115l-.7-2.555a.963.963 0 00-.916-.726H14.2v5.553h1.666v-3.28h.115l.954 3.28h1.196l.954-3.28h.115v3.28h1.667V5.674h-1.654a.963.963 0 00-.916.726zm3.308-.726h1.667v5.553h-1.667V5.674z" fill="#fff"/>
    <path d="M33.508 20.518h.382l2.47 5.63h-.433l-.675-1.559h-3.12l-.674 1.559h-.408l2.458-5.63zm1.579 3.695l-1.401-3.239-1.4 3.239h2.8zM37.352 24.134v-.013c0-1.143.865-2.138 1.959-2.138.725 0 1.183.35 1.54.753l-.268.282c-.33-.363-.712-.672-1.285-.672-.878 0-1.552.78-1.552 1.748v.014c0 .981.7 1.76 1.59 1.76.548 0 .968-.295 1.298-.671l.255.242c-.395.47-.866.806-1.578.806-1.107 0-1.96-.968-1.96-2.11zM41.889 24.134v-.013c0-1.143.865-2.138 1.96-2.138.724 0 1.183.35 1.539.753l-.267.282c-.331-.363-.713-.672-1.286-.672-.877 0-1.552.78-1.552 1.748v.014c0 .981.7 1.76 1.59 1.76.548 0 .968-.295 1.298-.671l.255.242c-.395.47-.865.806-1.578.806-1.094 0-1.96-.968-1.96-2.11zM46.426 24.121v-.013c0-1.184.789-2.125 1.832-2.125 1.082 0 1.769.928 1.769 2.138 0 .067 0 .094-.013.161H46.82c.064 1.009.751 1.6 1.514 1.6.598 0 1.006-.282 1.324-.645l.254.242c-.394.444-.852.766-1.59.766-1.018 0-1.896-.847-1.896-2.124zm3.194-.202c-.051-.82-.497-1.586-1.387-1.586-.764 0-1.349.672-1.425 1.586h2.812zM51.027 22.077h.369v.915c.33-.538.827-1.009 1.59-1.009.929 0 1.87.793 1.87 2.111v.014c0 1.33-.941 2.137-1.87 2.137-.776 0-1.272-.457-1.59-.968v2.152h-.37v-5.352zm3.422 2.057v-.013c0-1.076-.7-1.761-1.514-1.761-.801 0-1.578.712-1.578 1.748v.013c0 1.049.777 1.748 1.578 1.748.84 0 1.514-.645 1.514-1.735zM56.416 25.102V22.44h-.56v-.363h.56v-1.304h.37v1.304h1.348v.363h-1.349v2.622c0 .578.331.793.777.793.19 0 .343-.04.572-.148v.364c-.19.094-.382.147-.623.147-.611 0-1.095-.336-1.095-1.116z" fill="#fff"/>
  </g>
  <defs>
    <clipPath id="clip0">
      <path fill="#fff" d="M0 0h64v32H0z"/>
    </clipPath>
  </defs>
</svg>